<?xml version="1.0" standalone="no"?>
<svg viewBox="0 0 200 200" xmlns="http://www.w3.org/2000/svg">
  <path fill="#FF0066" d="M13.1,-26.2C21.9,-17.7,37.3,-24,43.9,-22.1C50.6,-20.3,48.5,-10.1,43,-3.2C37.4,3.8,28.5,7.5,25.2,15.3C22,23,24.4,34.7,21.1,46.9C17.9,59.2,8.9,72,1.8,68.8C-5.3,65.6,-10.5,46.5,-21.2,38.5C-31.9,30.6,-48.1,33.8,-52.4,29.3C-56.8,24.7,-49.3,12.4,-46.2,1.8C-43.2,-8.8,-44.5,-17.7,-41.7,-24.8C-38.9,-32,-31.9,-37.5,-24.2,-46.6C-16.5,-55.8,-8.3,-68.5,-3,-63.3C2.2,-58,4.3,-34.6,13.1,-26.2Z" transform="translate(100 100)" />
</svg>
