<?xml version="1.0" standalone="no"?>
<svg viewBox="0 0 200 200" xmlns="http://www.w3.org/2000/svg">
  <path fill="#FF0066" d="M31.1,-48.5C43.6,-46.7,59.1,-44.9,62.3,-36.8C65.5,-28.7,56.5,-14.4,48.4,-4.7C40.4,5,33.3,10.1,33.6,24.3C33.8,38.5,41.5,61.8,37.2,67.8C32.8,73.8,16.4,62.4,5.5,53C-5.5,43.5,-10.9,35.9,-25.3,35.8C-39.8,35.6,-63.1,42.8,-76,38C-88.9,33.3,-91.3,16.6,-84.1,4.2C-76.8,-8.3,-60,-16.6,-46.5,-20.4C-33.1,-24.2,-23.2,-23.6,-16,-28.4C-8.8,-33.3,-4.4,-43.6,2.5,-47.9C9.3,-52.1,18.7,-50.4,31.1,-48.5Z" transform="translate(100 100)" />
</svg>
