<?xml version="1.0" standalone="no"?>
<svg viewBox="0 0 200 200" xmlns="http://www.w3.org/2000/svg">
  <path fill="#FF0066" d="M23.8,-46.7C32.2,-36.3,41.6,-32.8,52.9,-26.2C64.3,-19.6,77.7,-9.8,74.8,-1.7C71.9,6.5,52.8,13,42.7,21.8C32.7,30.7,31.7,42,26.1,51.5C20.5,61,10.2,68.8,-2.1,72.6C-14.5,76.3,-29.1,75.9,-43.5,71.4C-57.9,67,-72.1,58.4,-81.2,45.8C-90.4,33.3,-94.3,16.6,-88.9,3.1C-83.4,-10.3,-68.5,-20.7,-57.7,-30.2C-46.8,-39.8,-40,-48.6,-31.1,-58.7C-22.1,-68.9,-11.1,-80.3,-1.7,-77.4C7.6,-74.4,15.3,-57.1,23.8,-46.7Z" transform="translate(100 100)" />
</svg>
