<?xml version="1.0" standalone="no"?>
<svg viewBox="0 0 200 200" xmlns="http://www.w3.org/2000/svg">
  <path fill="#FF0066" d="M39.7,-69.9C50,-62.9,55.8,-49.2,61.7,-36.5C67.5,-23.7,73.5,-11.8,74,0.3C74.6,12.5,69.6,24.9,62.3,35.2C55,45.5,45.3,53.6,34.6,59.9C23.8,66.1,11.9,70.4,-1.3,72.6C-14.4,74.9,-28.9,75,-40.8,69.4C-52.6,63.8,-61.9,52.4,-70.4,39.9C-78.8,27.4,-86.4,13.7,-88.8,-1.4C-91.2,-16.5,-88.4,-33,-79.8,-45.2C-71.3,-57.5,-56.9,-65.5,-42.6,-70.2C-28.3,-74.8,-14.1,-76.1,0.3,-76.6C14.7,-77.1,29.5,-76.8,39.7,-69.9Z" transform="translate(100 100)" />
</svg>
