<?xml version="1.0" standalone="no"?><svg xmlns="http://www.w3.org/2000/svg" viewBox="0 0 1440 320"><path fill="#FA9E60" fill-opacity="1" d="M0,64L10.4,85.3C20.9,107,42,149,63,154.7C83.5,160,104,128,125,117.3C146.1,107,167,117,188,122.7C208.7,128,230,128,250,149.3C271.3,171,292,213,313,245.3C333.9,277,355,299,376,304C396.5,309,417,299,438,256C459.1,213,480,139,501,106.7C521.7,75,543,85,563,101.3C584.3,117,605,139,626,160C647,181,668,203,689,213.3C709.6,224,730,224,751,186.7C772.2,149,793,75,814,42.7C834.8,11,856,21,877,48C897.4,75,918,117,939,160C960,203,981,245,1002,266.7C1022.6,288,1043,288,1064,261.3C1085.2,235,1106,181,1127,149.3C1147.8,117,1169,107,1190,101.3C1210.4,96,1231,96,1252,112C1273,128,1294,160,1315,192C1335.7,224,1357,256,1377,234.7C1398.3,213,1419,139,1430,101.3L1440,64L1440,0L1429.6,0C1419.1,0,1398,0,1377,0C1356.5,0,1336,0,1315,0C1293.9,0,1273,0,1252,0C1231.3,0,1210,0,1190,0C1168.7,0,1148,0,1127,0C1106.1,0,1085,0,1064,0C1043.5,0,1023,0,1002,0C980.9,0,960,0,939,0C918.3,0,897,0,877,0C855.7,0,835,0,814,0C793,0,772,0,751,0C730.4,0,710,0,689,0C667.8,0,647,0,626,0C605.2,0,584,0,563,0C542.6,0,522,0,501,0C480,0,459,0,438,0C417.4,0,397,0,376,0C354.8,0,334,0,313,0C292.2,0,271,0,250,0C229.6,0,209,0,188,0C167,0,146,0,125,0C104.3,0,83,0,63,0C41.7,0,21,0,10,0L0,0Z"></path></svg>